<svg width="32" height="32" viewBox="0 0 32 32" fill="none" xmlns="http://www.w3.org/2000/svg">
<g clip-path="url(#clip0)">
<path fill-rule="evenodd" clip-rule="evenodd" d="M6.62884 24.1952C7.17799 24.1952 7.62316 24.6404 7.62316 25.1895V30.4925C7.62316 31.0417 7.17799 31.4869 6.62884 31.4869C6.07969 31.4869 5.63452 31.0417 5.63452 30.4925V25.1895C5.63452 24.6404 6.07969 24.1952 6.62884 24.1952Z" fill="#3E3E3E"/>
<path fill-rule="evenodd" clip-rule="evenodd" d="M2.98297 27.8409C2.98297 27.2918 3.42814 26.8466 3.97729 26.8466H9.28032C9.82947 26.8466 10.2746 27.2918 10.2746 27.8409C10.2746 28.3901 9.82947 28.8353 9.28032 28.8353H3.97729C3.42814 28.8353 2.98297 28.3901 2.98297 27.8409Z" fill="#3E3E3E"/>
<path fill-rule="evenodd" clip-rule="evenodd" d="M5.30303 0.331543C5.85218 0.331543 6.29735 0.776714 6.29735 1.32586V9.28041C6.29735 9.82955 5.85218 10.2747 5.30303 10.2747C4.75389 10.2747 4.30872 9.82955 4.30872 9.28041V1.32586C4.30872 0.776714 4.75389 0.331543 5.30303 0.331543Z" fill="#3E3E3E"/>
<path fill-rule="evenodd" clip-rule="evenodd" d="M0.331421 5.3031C0.331421 4.75395 0.776592 4.30878 1.32574 4.30878L9.28028 4.30878C9.82943 4.30878 10.2746 4.75395 10.2746 5.3031C10.2746 5.85224 9.82943 6.29741 9.28028 6.29741L1.32574 6.29741C0.776592 6.29741 0.331421 5.85224 0.331421 5.3031Z" fill="#3E3E3E"/>
<path fill-rule="evenodd" clip-rule="evenodd" d="M19.8864 4.30878C20.3733 4.30878 20.7885 4.66131 20.8675 5.14172C21.3573 8.11915 22.381 10.3011 23.9377 11.8578C25.4945 13.4146 27.6764 14.4383 30.6538 14.928C31.1342 15.007 31.4868 15.4223 31.4868 15.9092C31.4868 16.396 31.1342 16.8113 30.6538 16.8903C27.6764 17.38 25.4945 18.4038 23.9377 19.9605C22.381 21.5172 21.3573 23.6992 20.8675 26.6766C20.7885 27.157 20.3733 27.5095 19.8864 27.5095C19.3995 27.5095 18.9843 27.157 18.9053 26.6766C18.4155 23.6992 17.3918 21.5172 15.835 19.9605C14.2783 18.4038 12.0964 17.38 9.11895 16.8903C8.63854 16.8113 8.28601 16.396 8.28601 15.9092C8.28601 15.4223 8.63854 15.007 9.11895 14.928C12.0964 14.4383 14.2783 13.4146 15.835 11.8578C17.3918 10.3011 18.4155 8.11915 18.9053 5.14172C18.9843 4.66131 19.3995 4.30878 19.8864 4.30878ZM13.114 15.9092C14.7232 16.5421 16.1006 17.4137 17.2412 18.5543C18.3818 19.6949 19.2535 21.0724 19.8864 22.6815C20.5193 21.0724 21.3909 19.6949 22.5316 18.5543C23.6722 17.4137 25.0496 16.5421 26.6588 15.9092C25.0496 15.2762 23.6722 14.4046 22.5316 13.264C21.3909 12.1234 20.5193 10.7459 19.8864 9.13676C19.2535 10.7459 18.3818 12.1234 17.2412 13.264C16.1006 14.4046 14.7232 15.2762 13.114 15.9092Z" fill="#3E3E3E"/>
</g>
<defs>
<clipPath id="clip0">
<rect width="31.8182" height="31.8182" fill="white"/>
</clipPath>
</defs>
</svg>
