<svg width="32" height="32" viewBox="0 0 32 32" fill="none" xmlns="http://www.w3.org/2000/svg">
<path fill-rule="evenodd" clip-rule="evenodd" d="M30.0516 1.94834C30.2652 2.16195 30.3701 2.46109 30.3367 2.76133C29.7017 8.47133 28.7823 14.3373 24.8041 19.0329C23.2952 20.814 20.4822 22.2577 18.2109 23.2289C17.0466 23.7268 15.9703 24.1224 15.1855 24.3936C14.7926 24.5293 14.4715 24.6343 14.2475 24.7057C14.1354 24.7414 14.0476 24.7687 13.9871 24.7873L13.9172 24.8086L13.8983 24.8143L13.893 24.8159L13.8914 24.8164C13.8912 24.8164 13.8905 24.8166 13.6071 23.8636L13.8914 24.8164C13.5415 24.9204 13.1619 24.8246 12.9039 24.5665L7.43312 19.0931C7.17522 18.8351 7.07933 18.4566 7.18327 18.1069L8.13637 18.3902C7.18327 18.1069 7.18321 18.1071 7.18327 18.1069L7.18558 18.0992L7.19126 18.0803L7.21258 18.0104C7.23117 17.9499 7.25848 17.8621 7.29417 17.75C7.36551 17.5261 7.47042 17.2051 7.60609 16.8123C7.87709 16.0276 8.27251 14.9516 8.77014 13.7875C9.7408 11.5168 11.1839 8.70439 12.9644 7.19583C17.66 3.21737 23.5287 2.29823 29.2386 1.6632C29.5388 1.62981 29.838 1.73473 30.0516 1.94834ZM9.26628 18.1141C9.32546 17.933 9.39891 17.713 9.48577 17.4615C9.74582 16.7086 10.1244 15.6787 10.5987 14.5692C11.5719 12.2926 12.8642 9.88718 14.2499 8.71309C18.1316 5.42424 22.9685 4.41987 28.2164 3.78351C27.58 9.03084 26.5755 13.8656 23.2868 17.7475C22.1123 19.1338 19.7062 20.4267 17.4291 21.4004C16.3193 21.8749 15.2892 22.2538 14.5361 22.514C14.2846 22.6008 14.0646 22.6743 13.8835 22.7335L9.26628 18.1141Z" />
<path fill-rule="evenodd" clip-rule="evenodd" d="M18.0796 12.9261C17.5304 12.9261 17.0853 13.3713 17.0853 13.9205C17.0853 14.4696 17.5304 14.9148 18.0796 14.9148C18.6287 14.9148 19.0739 14.4696 19.0739 13.9205C19.0739 13.3713 18.6287 12.9261 18.0796 12.9261ZM15.0966 13.9205C15.0966 12.273 16.4321 10.9375 18.0796 10.9375C19.727 10.9375 21.0625 12.273 21.0625 13.9205C21.0625 15.5679 19.727 16.9034 18.0796 16.9034C16.4321 16.9034 15.0966 15.5679 15.0966 13.9205Z" />
<path fill-rule="evenodd" clip-rule="evenodd" d="M19.7542 20.2687C20.2753 20.0953 20.8382 20.3771 21.0116 20.8981C21.2486 21.6101 21.178 22.596 21.0165 23.503C20.8451 24.465 20.5324 25.5413 20.1235 26.5379C19.7191 27.5234 19.1941 28.4961 18.5687 29.2049C17.9758 29.8769 17.055 30.5629 15.9244 30.296C15.6484 30.2308 15.4134 30.0509 15.2784 29.8015L15.2515 29.7518L15.1764 29.6122C15.1116 29.4916 15.0188 29.3183 14.9062 29.1067C14.6812 28.6838 14.3767 28.107 14.0595 27.4926C13.4458 26.3037 12.7224 24.8565 12.4962 24.1782C12.3224 23.6573 12.6039 23.0941 13.1248 22.9204C13.6458 22.7466 14.2089 23.0281 14.3827 23.549C14.5483 24.0456 15.1815 25.3307 15.8266 26.5804C16.1388 27.1853 16.4393 27.7544 16.6618 28.1725C16.6744 28.1962 16.6867 28.2194 16.6988 28.242C16.7998 28.1717 16.9256 28.0614 17.0775 27.8892C17.4975 27.4131 17.9214 26.6658 18.2837 25.7829C18.6415 24.9111 18.9133 23.9707 19.0587 23.1543C19.2139 22.2829 19.1923 21.7289 19.1248 21.5261C18.9514 21.005 19.2332 20.4421 19.7542 20.2687Z" />
<path fill-rule="evenodd" clip-rule="evenodd" d="M11.7476 12.1917C11.8912 11.6617 11.5779 11.1156 11.0478 10.9721C10.3471 10.7823 9.38093 10.8695 8.47565 11.0451C7.52171 11.2301 6.45674 11.5502 5.47455 11.963C4.50502 12.3705 3.54762 12.8967 2.85995 13.5239C2.20336 14.1227 1.54438 15.0613 1.88015 16.1921C1.95339 16.4388 2.11939 16.6474 2.34326 16.7742L2.39154 16.8015L2.52605 16.8771C2.64216 16.9422 2.809 17.0353 3.01279 17.1479C3.42005 17.3731 3.97652 17.6772 4.5717 17.9921C5.16554 18.3062 5.80469 18.6347 6.37557 18.9069C6.92286 19.1679 7.47907 19.4124 7.87582 19.5202C8.40578 19.6641 8.95204 19.3511 9.09594 18.8211C9.23984 18.2912 8.92688 17.7449 8.39692 17.601C8.19607 17.5465 7.79061 17.3785 7.23153 17.1119C6.69605 16.8565 6.08413 16.5424 5.50162 16.2342C4.92044 15.9268 4.37525 15.6289 3.97494 15.4076C3.94132 15.389 3.90873 15.3709 3.87724 15.3535C3.93854 15.2599 4.0384 15.1406 4.20005 14.9932C4.64983 14.5829 5.37425 14.1623 6.24502 13.7963C7.10314 13.4357 8.03694 13.1559 8.85433 12.9973C9.72039 12.8293 10.2981 12.8293 10.528 12.8916C11.058 13.0351 11.6041 12.7218 11.7476 12.1917Z" />
<path fill-rule="evenodd" clip-rule="evenodd" d="M6.47705 21.1473C6.51276 21.6953 6.09749 22.1685 5.5495 22.2042C5.07756 22.235 4.80556 22.4296 4.58683 22.7809C4.33026 23.1931 4.15733 23.8214 4.04923 24.6526C3.9611 25.3302 3.92542 26.0505 3.88884 26.7888C3.88108 26.9455 3.87328 27.103 3.86492 27.261C3.84688 27.6026 3.8261 27.954 3.79461 28.2995C4.1493 28.2679 4.51023 28.2477 4.86012 28.2302C5.01003 28.2227 5.15935 28.2157 5.30784 28.2087C6.06309 28.1732 6.79712 28.1387 7.48154 28.0479C8.31308 27.9377 8.91968 27.76 9.30052 27.5046C9.60951 27.2974 9.79422 27.0315 9.79355 26.5163C9.79283 25.9672 10.2374 25.5214 10.7866 25.5207C11.3357 25.52 11.7815 25.9646 11.7822 26.5137C11.7837 27.7126 11.2519 28.5905 10.4081 29.1563C9.63618 29.6739 8.65387 29.8985 7.74299 30.0193C6.96657 30.1223 6.13184 30.1612 5.37792 30.1964C5.23519 30.203 5.09534 30.2095 4.95934 30.2163C4.0569 30.2614 3.351 30.3182 2.86375 30.4552C2.51762 30.5525 2.14592 30.4554 1.89166 30.2011C1.63739 29.9469 1.54018 29.5752 1.63742 29.2291C1.77332 28.7453 1.83195 28.0476 1.87906 27.1561C1.88659 27.0135 1.89382 26.8667 1.9012 26.7166C1.93759 25.9774 1.97779 25.1605 2.0772 24.3961C2.19553 23.4863 2.41179 22.5119 2.8986 21.7299C3.42326 20.8872 4.24886 20.2961 5.42017 20.2198C5.96815 20.1841 6.44133 20.5994 6.47705 21.1473Z" />
</svg>
