<svg width="32" height="33" viewBox="0 0 32 33" fill="none" xmlns="http://www.w3.org/2000/svg">
<g clip-path="url(#clip0)">
<path fill-rule="evenodd" clip-rule="evenodd" d="M7.30555 2.63823C6.56492 2.63823 5.91421 3.12967 5.71158 3.84204L3.65057 11.0878C3.71819 11.9598 4.50336 12.5814 5.30306 12.5814C6.13961 12.5814 6.96026 11.9012 6.96026 10.9656C6.96026 10.4165 7.40543 9.97133 7.95458 9.97133C8.50372 9.97133 8.94889 10.4165 8.94889 10.9656C8.94889 11.9012 9.76954 12.5814 10.6061 12.5814C11.4426 12.5814 12.2633 11.9012 12.2633 10.9656C12.2633 10.4165 12.7085 9.97133 13.2576 9.97133C13.8068 9.97133 14.2519 10.4165 14.2519 10.9656C14.2519 11.9012 15.0726 12.5814 15.9091 12.5814C16.7457 12.5814 17.5663 11.9012 17.5663 10.9656C17.5663 10.4165 18.0115 9.97133 18.5606 9.97133C19.1098 9.97133 19.555 10.4165 19.555 10.9656C19.555 11.9012 20.3756 12.5814 21.2122 12.5814C22.0487 12.5814 22.8693 11.9012 22.8693 10.9656C22.8693 10.4165 23.3145 9.97133 23.8637 9.97133C24.4128 9.97133 24.858 10.4165 24.858 10.9656C24.858 11.9012 25.6786 12.5814 26.5152 12.5814C27.3149 12.5814 28.1 11.9598 28.1677 11.0878L26.1067 3.84203C25.904 3.12967 25.2533 2.63823 24.5127 2.63823H7.30555ZM23.8637 13.4306C24.5718 14.1585 25.5629 14.5701 26.5152 14.5701C28.2719 14.5701 30.161 13.1695 30.161 10.9656C30.161 10.8736 30.1482 10.7821 30.1231 10.6936L28.0194 3.29796C27.5736 1.73075 26.1421 0.649597 24.5127 0.649597H7.30555C5.67617 0.649597 4.2446 1.73075 3.79882 3.29796L1.69516 10.6936C1.66999 10.7821 1.65723 10.8736 1.65723 10.9656C1.65723 13.1696 3.54639 14.5701 5.30306 14.5701C6.25531 14.5701 7.24649 14.1585 7.95458 13.4306C8.66267 14.1585 9.65384 14.5701 10.6061 14.5701C11.5583 14.5701 12.5495 14.1585 13.2576 13.4306C13.9657 14.1585 14.9569 14.5701 15.9091 14.5701C16.8614 14.5701 17.8525 14.1585 18.5606 13.4306C19.2687 14.1585 20.2599 14.5701 21.2122 14.5701C22.1644 14.5701 23.1556 14.1585 23.8637 13.4306Z" fill="#3E3E3E"/>
<path fill-rule="evenodd" clip-rule="evenodd" d="M5.30297 12.5814C5.85212 12.5814 6.29729 13.0266 6.29729 13.5757V25.5076C6.29729 27.8872 8.22637 29.8163 10.606 29.8163H21.2121C23.5917 29.8163 25.5208 27.8872 25.5208 25.5076V13.5757C25.5208 13.0266 25.9659 12.5814 26.5151 12.5814C27.0642 12.5814 27.5094 13.0266 27.5094 13.5757V25.5076C27.5094 28.9855 24.69 31.8049 21.2121 31.8049H10.606C7.12807 31.8049 4.30865 28.9855 4.30865 25.5076V13.5757C4.30865 13.0266 4.75383 12.5814 5.30297 12.5814Z" fill="#3E3E3E"/>
<path fill-rule="evenodd" clip-rule="evenodd" d="M18.5606 21.1988C17.6454 21.1988 16.9034 21.9407 16.9034 22.856V24.1817C16.9034 24.7309 16.4583 25.1761 15.9091 25.1761C15.36 25.1761 14.9148 24.7309 14.9148 24.1817V22.856C14.9148 20.8424 16.5471 19.2101 18.5606 19.2101C20.5742 19.2101 22.2065 20.8424 22.2065 22.856V24.1817C22.2065 24.7309 21.7613 25.1761 21.2121 25.1761C20.663 25.1761 20.2178 24.7309 20.2178 24.1817V22.856C20.2178 21.9407 19.4759 21.1988 18.5606 21.1988Z" fill="#3E3E3E"/>
</g>
<defs>
</defs>
</svg>
