<svg xmlns="http://www.w3.org/2000/svg" width="250" height="609" fill="none" viewBox="0 0 250 609" class="woman-flying-ballon">
    <path fill="#862034" fill-rule="evenodd" d="M113.309 262.543l-.909.236-.002-.007-.005-.019-.017-.067-.063-.25a85.277 85.277 0 0 1-.895-4.163c-.502-2.657-1.047-6.223-1.187-9.757-.136-3.456.096-7.217 1.397-10.057.67-1.465 1.683-2.812 3.194-3.674 1.53-.873 3.324-1.109 5.284-.782 4.839.81 8.082 2.928 9.538 6.198 1.398 3.138.861 6.72-.362 9.879-1.242 3.21-3.328 6.352-5.605 8.898-2.248 2.511-4.872 4.652-7.308 5.632a2.226 2.226 0 0 1-2.001-.171 2.229 2.229 0 0 1-1.968-1.66l.909-.236zm2.935-2.893c1.262-.821 2.7-2.068 4.112-3.645 1.999-2.234 3.761-4.926 4.77-7.534 1.029-2.659 1.15-4.879.448-6.456-.644-1.445-2.26-2.955-6.201-3.615-1.167-.195-1.879-.008-2.343.257-.483.275-.949.781-1.351 1.658-.844 1.842-1.126 4.715-.995 8.025.128 3.23.632 6.559 1.113 9.106.157.835.311 1.581.447 2.204z" clip-rule="evenodd"/>
    <path fill="#862034" stroke="#862034" stroke-linecap="round" stroke-linejoin="round" stroke-miterlimit="10" stroke-width=".425" d="M98.65 296.108a6.414 6.414 0 0 0 6.413-6.414 6.414 6.414 0 1 0-6.413 6.414z"/>
    <path fill="#C8002D" fill-rule="evenodd" d="M98.988 289.695c-1.35 2.363-.338 4.726-2.363 4.389-4.05-1.013-4.387-5.064-3.037-7.427 1.35-2.364 5.062-3.376 6.75-2.364 1.687 1.013 0 3.039-1.35 5.402z" clip-rule="evenodd"/>
    <path fill="#AF709E" d="M64.562 388.611l22.613 114.446s25.313 29.709 37.801-6.077l-19.913-104.993c.337 0-32.738-12.829-40.501-3.376z"/>
    <path fill="#77486F" d="M84.475 387.599s14.513 48.952 29.363 44.226c15.863-5.064-4.388-42.2-4.388-42.2l-24.975-2.026z"/>
    <path fill="#AF709E" d="M94.263 389.285s13.5 72.584 59.738 50.978c28.688-13.166 2.363-67.52 2.363-67.52s-18.901-10.466-29.363 1.688l1.012 4.726c.338 0-18.563-4.388-33.75 10.128z"/>
    <path fill="#C8002D" d="M79.412 467.947c5.4-1.013 20.25 1.351 36.451-4.051 2.363-.675 4.725.675 5.063 3.376l3.037 28.021-3.037 12.829-30.376 5.739-6.075-17.218-3.038-15.867c-.337-2.701-3.375-12.491-2.025-12.829zM127.338 368.693l40.164-9.791-4.726 16.205 7.763 24.983c.675 2.7-1.687 5.064-4.725 4.388-5.4-1.012-29.026 5.064-29.026 2.701"/>
    <path stroke="#862034" stroke-linecap="round" stroke-linejoin="round" stroke-miterlimit="10" stroke-width=".425" d="M127.338 368.693l40.164-9.791-4.726 16.205 7.763 24.983c.675 2.7-1.687 5.064-4.725 4.388-5.4-1.012-29.026 5.064-29.026 2.701"/>
    <path fill="#FFD582" d="M199.902 367.005s7.763-12.491-21.6-16.88c-18.563-2.701-28.688-1.35-33.413.338-3.038 1.013-5.738 1.688-8.776 2.025-3.712.676-6.075 1.351-7.762 4.727-2.363 6.077-.675 10.465-.675 10.465l34.425-4.726 37.801 4.051z"/>
    <path fill="#F2A000" d="M164.464 384.559s47.251-13.504 33.076-21.944c-13.838-8.44-36.451-13.166-45.564-8.44-8.775 4.727-10.462 5.74-17.888 2.026-5.4-2.701-12.825 21.606-6.412 23.632 0 0 8.437-13.842 19.575-9.79 11.138 4.051 4.05 14.179 17.213 14.516z"/>
    <path fill="#AF709E" d="M36.549 329.193s-2.7-2.701-4.725-6.752c-1.013-2.026-.338-4.389 1.687-5.402s3.713-2.363 4.725-3.376c2.7-3.038.338-5.739-4.387-4.389-2.363.676-8.438 1.351-8.438 1.351l-.675.675c-6.75-1.688-19.238-.675-19.238-.675s16.538 70.896 63.114 41.862l8.775-24.645c-.675-.337-25.988 18.568-40.838 1.351zM111.813 269.1s-5.4-3.376-7.088-5.064c-3.712-3.039-7.087-1.688-6.075 2.025 1.013 3.714 5.4 7.427 9.788 13.842 3.037 4.389 3.375-10.803 3.375-10.803z"/>
    <path fill="#AF709E" d="M38.782 314.038s4.538-4.469 6.571-5.718c3.818-2.906 3.29-6.503-.557-6.381-3.846.121-8.477 3.527-15.734 6.304-4.973 1.935 9.72 5.795 9.72 5.795z"/>
    <path fill="#77486F" d="M26.424 308.937c-2.025 1.013-4.388.338-4.725.338v-.338c-1.35-3.376-7.426-1.688-8.438-1.688-.338-.337-1.013-.337-1.688-.337-5.062-.338-7.087.675-6.412 7.089.675 3.714 4.387 17.555 16.2 10.128 4.05-3.713 7.425-10.803 7.425-10.803.675-5.064-1.687-4.726-2.362-4.389z"/>
    <path fill="#FFCED1" d="M76.712 327.506c10.8-6.077 20.25-7.765 44.214-6.077l5.062 29.034s-47.25 8.102-58.726.675c0 .337-1.35-12.154 9.45-23.632z"/>
    <path fill="#AF709E" d="M83.125 317.377c.337 0 .675.338.675.338l.337 13.842c.338 2.363 2.7 4.051 4.725 3.376 4.05-1.013 10.126-3.376 14.513-9.116a4.572 4.572 0 0 0 0-5.739l-5.4-6.752s8.438-5.064 1.35-11.816c-7.088-6.752-11.813-13.166-18.9-3.038-6.75 10.128-5.4 19.918 2.7 18.905z"/>
    <path fill="#77486F" d="M89.875 315.352c1.688-.338 4.725-1.35 7.763-4.389 0 0 3.037 6.415 6.75 9.453 1.35 5.064-11.476 1.35-14.85-3.714-.676-.337-.338-1.012.337-1.35z"/>
    <path fill="#483348" d="M81.227 306.352c.418-.999.433-1.945.033-2.112-.4-.167-1.062.507-1.48 1.507-.418.999-.432 1.944-.033 2.112.4.167 1.062-.508 1.48-1.507zM84.728 306.743c.431-1.032.363-2.043-.153-2.259-.516-.216-1.284.446-1.715 1.478-.432 1.032-.364 2.043.152 2.259.516.216 1.284-.446 1.716-1.478z"/>
    <path fill="#483348" fill-rule="evenodd" d="M86.514 309.191a.55.55 0 0 1 .07.774c-.96 1.152-2.286 1.612-3.323 1.793a7.79 7.79 0 0 1-1.723.102 2.56 2.56 0 0 1-.114-.009l-.032-.003-.01-.001h-.004l.06-.546-.061.546a.55.55 0 0 1 .12-1.092h.003l.02.002.085.006a6.782 6.782 0 0 0 1.468-.087c.903-.158 1.94-.541 2.668-1.415a.55.55 0 0 1 .773-.07zm-5.016 1.564zm0 0z" clip-rule="evenodd"/>
    <path fill="#862034" fill-rule="evenodd" stroke="#862034" stroke-linecap="round" stroke-linejoin="round" stroke-miterlimit="10" stroke-width=".425" d="M95.95 307.25l1.688 6.414s5.062-1.013 6.412-5.739c1.013-4.051-3.375-17.555-17.55-14.854-7.763 1.35-6.75 6.752-6.75 6.752s15.525-.338 16.2 7.427z" clip-rule="evenodd"/>
    <path fill="#AF709E" fill-rule="evenodd" d="M130.038 278.216s16.201 7.765 22.613 18.568c6.413 10.803-28.35 43.888-28.35 43.888-4.388 4.727-15.526-.337-15.526-14.854 0-2.701 1.013-5.064 2.7-6.752l15.526-16.543c1.012-1.012 1.012-2.363 0-3.376-2.025-2.363-6.075-6.752-10.8-10.128-4.388-3.376-10.126-6.752-9.451-14.854" clip-rule="evenodd"/>
    <path fill="#77486F" d="M112.488 267.412c1.35 1.688 3.712 2.363 4.05 2.363v-.337c2.7-2.363 7.425 1.688 8.438 2.363.675 0 1.012 0 1.687.338 4.725 2.025 9.113 7.089 5.4 12.491-2.025 3.038-6.75 7.427-11.137 4.389-15.188-9.791-12.151-19.244-12.151-19.244.338-3.713 3.375-3.038 3.713-2.363zM130.813 374.238s2.799 11.611 3.474 24.07c0 .453-1.012.679-1.35.226-2.025-3.398-6.075-9.287-14.512-15.856-5.738-4.531-8.101-10.647-6.751-16.536 1.35-5.437 3.713-11.553 9.113-13.818.338-.227 1.013 0 1.013.226 2.362 3.172 7.663 15.345 9.013 21.688z"/>
    <path fill="#862034" d="M104.725 466.258s16.876 29.708-9.787 30.046c0 0-5.063 8.102 9.45 12.154 0 0 16.2 8.102 20.25-13.504l-3.037-28.021s.585-5.02-3.141-5.02c0 0-.909 2.994-13.735 4.345z"/>
    <path fill="#862034" stroke="#862034" stroke-linecap="round" stroke-linejoin="round" stroke-miterlimit="10" stroke-width=".425" d="M146.239 406.841c-.338 0 17.55-18.906 11.137-29.034 0 0 2.025-6.077 8.438 10.128 0 0 10.463 16.88-.337 16.88.337 0-11.476-1.013-19.238 2.026z"/>
    <path fill="#FFBD3D" d="M167.164 383.546l-1.35 4.727c-.675 3.376-4.05 5.401-7.425 4.388l-4.725-1.012c-4.05-1.013-6.075-5.064-4.388-8.778l2.7-5.064c1.013-1.688 2.363-3.038 4.388-3.714 0 0 3.712-.337 19.238-2.7 7.425-1.351 8.775 3.376 8.775 5.401 0 .675-.338 1.013-.675 1.351-2.7 1.012-11.813 3.713-16.538 5.401z"/>
    <path fill="#C8002D" d="M66.924 351.137s-5.4 24.307-1.35 41.862c0 0 2.026-7.427 28.689-2.025 0 0 22.95-15.867 38.138-10.803 4.387-7.428-8.1-33.76-8.1-33.76s-46.914 7.764-57.377 4.726z"/>
    <path stroke="#F0D8D8" stroke-linecap="round" stroke-miterlimit="10" stroke-width="1.463" d="M81.775 364.303c1.35-1.012 6.412-2.025 8.775 4.052.675 1.688.675 13.504 4.388 22.619M108.438 352.825s3.712 12.491 16.875 10.128"/>
    <path fill="#C8002D" fill-rule="evenodd" d="M82.787 299.485c-2.7 0-2.7-2.701-.675-4.051 3.038-2.026 7.763-2.701 10.126-1.351 2.362 1.351 3.712 5.402 2.362 7.09-1.35 1.688-7.088-1.688-11.813-1.688z" clip-rule="evenodd"/>
    <path fill="#862034" fill-rule="evenodd" d="M80.087 298.471l13.838 1.351c2.363.337 4.05 1.688 4.388 4.051 0 .675 0 .675-.338.675-6.075-1.688-19.128-3.299-19.128-3.299l1.24-2.778z" clip-rule="evenodd"/>
    <path fill="#AF709E" fill-rule="evenodd" d="M94.938 311.637c2.7.338 6.412-1.35 6.075-5.064-.338-1.688-1.013-2.025-2.363-2.363-3.037-.337-5.063 2.026-5.738 3.714" clip-rule="evenodd"/>
    <path fill="#FF0D13" d="M34.48 287.052l-16.493 3.667c-1.812.401-3.466 1.975-3.222 4.004l.427 4.767.968 8.128.537 4.486 1.323 12.177c.204 1.714 2.284 3.309 3.822 2.969l16.49-3.661c1.811-.401 3.577-1.584 3.34-3.609l-.597-5.529-.968-8.128-.537-4.486-.943-7.891-.478-3.999c-.21-1.718-2.135-3.229-3.67-2.895z"/>
    <path fill="#FFCED1" d="M34.439 290.704l-14.919 3.408c-1.6.368-2.772 1.985-2.741 3.213l.472 4.49.738 5.921.484 3.825.845 6.727.43 3.402c.181 1.455 1.89 2.727 3.242 2.419l14.918-3.408c1.601-.368 3.152-1.434 2.93-3.159l-2.93-24.258c-.188-1.459-1.03-3.045-3.47-2.58z"/>
    <path fill="#FF0D13" fill-rule="evenodd" d="M26.09 307.051c2.086-.301 3.191-2.347 2.916-3.852-.203-1.089-1.353-1.413-2.37-1.265-2.279.329-3.166 2.492-2.917 3.852.193 1.076 1.368 1.414 2.37 1.265zm8.53-4.659c.276 1.506-.83 3.552-2.916 3.852-1.002.149-2.177-.188-2.37-1.264-.25-1.361.638-3.524 2.916-3.852 1.008-.146 2.168.175 2.37 1.264zm-6.104 9.333c1.85-.158 3.443-.93 4.513-2.162l.773 1.325.088-3.695-3.471.491 1.33.69c-.855 1.131-2.636 2.089-4.22 2.142-1.623.063-3.089-.793-3.812-1.853l-.113.017c.655 1.725 2.583 3.245 4.912 3.045z" clip-rule="evenodd"/>
    <path fill="#A20C2E" d="M35.39 286.9l-17.402 3.82c-1.812.402-3.466 1.975-3.222 4.004l.427 4.767.967 8.128.538 4.486 1.323 12.177c.204 1.714 2.455 4.157 5.326 3.575l14.992-4.263c1.812-.402 3.577-1.584 3.34-3.61l-.597-5.529-.967-8.127-.538-4.487-.942-7.89.703-4.153c-.207-1.708-2.012-3.548-3.949-2.898z"/>
    <path fill="#C8002D" d="M35.98 287.859l-16.426 3.648c-1.812.401-3.453 1.966-3.213 3.986l.422 4.748.968 8.097.531 4.468 1.32 12.121c.201 1.705 2.276 3.297 3.804 2.959l16.433-3.644c1.812-.402 3.564-1.576 3.324-3.595l-.597-5.514-.968-8.097-.531-4.468-.943-7.859-.472-3.981c-.204-1.699-2.123-3.207-3.651-2.869z"/>
    <path fill="#FFCED1" d="M35.43 290.888l-14.915 3.402c-1.6.368-2.773 1.984-2.741 3.213l.471 4.489.74 5.922.483 3.824.844 6.727.43 3.402c.182 1.456 1.89 2.727 3.243 2.419l14.918-3.408c1.601-.368 3.152-1.434 2.93-3.158L38.9 293.467c-.185-1.465-1.027-3.051-3.47-2.579zM27.492 291.738a.68.68 0 0 0 .925-.26.68.68 0 0 0-.295-.915.68.68 0 0 0-.925.26.68.68 0 0 0 .295.915z"/>
    <path fill="#EC1D2C" fill-rule="evenodd" d="M27.43 307.137c1.88-.272 2.876-2.115 2.63-3.466-.179-.983-1.22-1.271-2.14-1.14-2.052.295-2.849 2.245-2.629 3.466.185.971 1.235 1.272 2.14 1.14zm7.682-4.196c.249 1.36-.75 3.193-2.629 3.466-.905.132-1.96-.173-2.14-1.141-.225-1.224.577-3.17 2.63-3.466.92-.131 1.957.164 2.139 1.141zm-5.496 8.409c1.664-.141 3.103-.835 4.067-1.946l.7 1.194.08-3.321-3.132.441 1.2.62c-.77 1.015-2.374 1.883-3.804 1.933-1.46.058-2.78-.712-3.435-1.673l-.104.014c.595 1.553 2.327 2.915 4.428 2.738z" clip-rule="evenodd"/>
    <path fill="#AF709E" d="M5.958 311.355l12.766 1.238c1.008.098 1.918 1.204 1.82 2.212.238 1.04-.13 1.344-1.973 2.861-1.073.574-2.178 1.485-3.219 1.723l-4.259 1.961c-5.505.822-7.531-2.766-6.707-7.774.434-.975.835-1.614 1.572-2.221zM13.275 298.837s7.196 2.733 6.74 7.437c-.163 1.68-1.605 2.558-2.916 2.091l-10.12-4.034s-1.149-2.147-.618-4.13c.63-2.992 5.333-2.535 6.914-1.364z"/>
    <path fill="#AF709E" d="M7.01 303.996l11.497 3.829c.64.401 1.582 1.171 1.755 2.883 0 0-.564 2.32-1.907 2.19 0 0-7.38 2.676-13.167-.599-1.95-.868-1.331-7.252 1.822-8.303z"/>
    <path fill="#FFD482" d="M70.375 544.61s2.431 15.864 29.578-1.217c17.48-10.885 24.425-18.991 27.261-23.449 1.91-2.721 3.82-5.443 5.904-7.874 2.489-3.069 4.11-5.617 2.894-9.611-2.2-6.948-6.599-9.032-6.599-9.032l-24.773 28.254-34.265 22.929z"/>
    <path fill="#F2A000" d="M87.334 505.297s-29.288 44.35-11.807 41.339c17.48-3.011 39.128-14.822 43.179-25.128 3.936-9.843 4.746-11.117 12.734-15.517 7.698-4.227-1.07-23.489-7.784-20.246 0 0-.32 15.267-12.243 19.667-11.635 4.227-12.966-9.147-24.08-.115z"/>
    <path fill="#FFBD3D" d="M85.32 507.811l-1.749-4.194c-1.62-3.358-.405-7.238 2.952-8.859l4.804-2.49c3.936-1.968 8.624-.058 9.724 4.4l1.332 5.501c.463 2.084.173 4.226-1.042 6.137 0 0-2.663 2.779-13.776 15.749-5.267 6.311-9.434 3.3-11.055 1.91-.347-.579-.695-1.158-.29-1.794 1.158-2.664 6.438-11.613 9.1-16.36z"/>
    <path fill="#862034" fill-rule="evenodd" d="M110.082 203.721a2.23 2.23 0 0 1 2.319 2.135l2.783 67.126a2.2 2.2 0 0 1-.095.793 2.228 2.228 0 0 1-2.485 1.544l-.096-.014-.373-.058c-.323-.051-.79-.127-1.377-.23a106.944 106.944 0 0 1-4.77-.957c-3.865-.868-8.934-2.23-13.594-4.199-4.57-1.932-9.152-4.609-11.589-8.318-1.261-1.921-1.963-4.142-1.748-6.617.212-2.445 1.297-4.924 3.225-7.432 1.923-2.502 4.024-4.175 6.321-4.938 2.34-.777 4.631-.527 6.729.36 4.018 1.698 7.503 5.8 10.277 10.023 1.739 2.645 3.298 5.496 4.622 8.17l-2.283-55.069a2.228 2.228 0 0 1 2.134-2.319zm-.624 66.517c-.316-.772-.681-1.64-1.091-2.576-1.594-3.642-3.839-8.253-6.482-12.275-2.705-4.117-5.574-7.219-8.287-8.365-1.269-.536-2.437-.618-3.59-.235-1.196.397-2.62 1.378-4.193 3.424-1.567 2.039-2.2 3.73-2.318 5.1-.116 1.339.24 2.577 1.033 3.784 1.673 2.546 5.193 4.798 9.598 6.659 4.315 1.824 9.096 3.117 12.836 3.956.903.203 1.742.379 2.494.528z" clip-rule="evenodd"/>
    <path fill="#AF709E" d="M124.976 269.438l-5.738 11.478c-.337 1.013 0 2.026 1.013 2.701 1.012.675 1.012.675 3.375 0 1.012-.337 2.362-1.013 3.037-1.688l4.05-2.701c3.713-4.051 1.688-7.764-3.037-9.79-1.013-.338-2.025-.675-2.7 0zM110.463 268.762s-1.688 7.427 2.7 9.453c1.35.675 3.037 0 3.037-1.35l1.688-10.466s-1.013-2.026-3.375-2.701c-2.025-.675-4.05 3.376-4.05 5.064z"/>
    <path fill="#AF709E" d="M117.676 266.948l-2.488 11.266c0 .676.337 2.026 1.687 3.039 0 0 2.363.675 3.038-.338 0 0 7.088-8.102 6.75-11.478-.675-2.363-6.287-4.853-8.987-2.489z"/>
    <path stroke="#73476C" stroke-linecap="round" stroke-linejoin="round" stroke-miterlimit="10" stroke-width=".732" d="M118.852 281.953s7.811-8.463 7.474-12.514M114.85 278.553s.675-5.739 3.038-11.816"/>
    <path fill="#862034" fill-rule="evenodd" d="M192.769 372.474a.909.909 0 0 1 1.258.265l6.214 9.525a.91.91 0 0 1-1.523.995l-6.214-9.526a.91.91 0 0 1 .265-1.259z" clip-rule="evenodd"/>
    <path fill="#C8002D" d="M231.258 426.079l-37.77 10.777c-2.709 1.033-7.352-.3-7.761-2.73l-10.474-45.134c-.408-2.43-.882-6.386 1.827-7.419l34.437-10.024c.903-.344 2.15.215 3.118 1.398l16.235 43.972 2.408 6.322c.065 1.526-.494 2.774-2.02 2.838z"/>
    <path fill="#B53846" fill-rule="evenodd" d="M212.988 371.818c-.52-.233-1.013-.276-1.414-.123l-.012.005-34.432 10.021c-1.27.488-1.81 1.66-1.976 3.056-.166 1.395.05 2.97.254 4.184l10.475 45.139c.094.56.434 1.068.95 1.502.516.435 1.2.789 1.961 1.038 1.527.5 3.327.569 4.639.069l.012-.005 37.806-10.786c.715-.031 1.188-.329 1.481-.794.296-.468.419-1.116.391-1.852l-2.399-6.298-16.227-43.949c-.467-.565-.995-.977-1.509-1.207zm.129-.286c.571.256 1.143.708 1.64 1.315l.034.042-.009.003 16.235 43.971 2.427 6.37-.009.001c.033.78-.092 1.51-.437 2.057-.349.553-.913.905-1.714.944l-37.746 10.77c-1.396.529-3.269.448-4.841-.067-.789-.258-1.512-.629-2.066-1.096-.553-.465-.946-1.033-1.057-1.685l-10.475-45.139c-.204-1.216-.429-2.832-.257-4.279.172-1.446.748-2.766 2.183-3.313l.011-.004 34.432-10.022c.501-.189 1.08-.123 1.649.132z" clip-rule="evenodd"/>
    <path fill="#F0D8D8" fill-rule="evenodd" d="M202.255 405.591c3.611-1.376 5.287-5.118 4.255-7.827-.688-1.806-2.838-2.021-4.643-1.333-4.235 1.097-4.665 5.398-4.256 7.828.688 1.806 2.838 2.021 4.644 1.332zm13.907-10.989c1.032 2.709-.644 6.451-4.255 7.827-1.806.689-3.956.474-4.644-1.332-1.032-2.71.021-6.731 4.256-7.828 1.805-.688 3.955-.473 4.643 1.333zm-8.382 18.708c3.332-.752 5.697-2.688 7.438-4.903l1.935 2.365-1.226-7.289-6.041 1.785 2.494 1.118c-1.118 2.494-4.385 4.774-6.814 5.183-3.332.753-5.826-.365-7.137-2.451 1.376 3.613 5.116 5.29 9.351 4.192z" clip-rule="evenodd"/>
    <path fill="#862034" fill-rule="evenodd" d="M197.227 368.994a.91.91 0 0 1 1.259.265l6.213 9.526a.909.909 0 1 1-1.523.994l-6.214-9.526a.91.91 0 0 1 .265-1.259zM186.24 355.998c-1.009 4.434-.68 13.406 4.115 29.377a.91.91 0 0 1-1.742.523c-4.818-16.046-5.264-25.395-4.146-30.304.55-2.416 1.54-4.003 2.836-4.568a2.42 2.42 0 0 1 2.026.014c.615.287 1.091.808 1.412 1.431a.91.91 0 0 1-1.618.832c-.179-.349-.392-.535-.563-.615a.604.604 0 0 0-.53.006c-.477.208-1.276 1.048-1.79 3.304z" clip-rule="evenodd"/>
    <path fill="#862034" fill-rule="evenodd" d="M179.419 353.685c-2.753 4.027-4.378 12.544.402 28.464a.91.91 0 1 1-1.742.524c-4.832-16.097-3.384-25.3-.162-30.014 1.616-2.365 3.678-3.586 5.557-3.906 1.808-.308 3.673.224 4.429 1.696a.91.91 0 1 1-1.617.832c-.244-.474-1.098-.974-2.507-.735-1.337.228-2.989 1.133-4.36 3.139z" clip-rule="evenodd"/>
    <path fill="#911F1D" d="M193.487 436.858l-16.316 4.668c-.903.344-1.526.065-1.87-.838-.065-1.527-9.721-41.801-12.044-53.327-.344-.903.559-1.247.838-1.871l11.178-3.226 1.527-.065 2.708-1.033c.903-.344 1.527-.064 1.247.559 0 0 13.441 50.209 14.753 52.295.064 1.527-.494 2.774-2.021 2.838z"/>
    <path stroke="#73476C" stroke-linecap="round" stroke-linejoin="round" stroke-miterlimit="10" stroke-width=".732" d="M18.65 312.633s-9.746 1.457-13.03.001M18.65 307.647s-5.569-2.198-11.167-3.553"/>
    <path fill="#EC1D2C" d="M104.423 186.722c49.717 0 88.503-48.493 88.503-98.225 0-49.73-38.786-86.931-88.503-86.931s-88.689 37.2-88.689 86.931c0 49.732 38.972 98.225 88.689 98.225z"/>
    <path fill="#EC1D2C" fill-rule="evenodd" d="M107.67 175.616c-3.013 6.027-13.699 24.907-13.699 24.907-2.137 3.348.567 7.675 4.507 7.237l22.195-2.395c4.275-.464 5.768-5.924 2.318-8.5.025 0-9.708-5.306-15.321-21.249z" clip-rule="evenodd"/>
    <path fill="#FFF8F8" d="M44.662 38.866c-12.864 22.372-17.749 47.036-13.133 72.945 2.041 11.306 19.415 8.963 17.374-2.343-3.576-20.786-.4-41.64 10.17-59.911 5.63-9.604-8.78-20.294-14.411-10.69z" opacity=".5"/>
    <ellipse cx="74.93" cy="24.318" fill="#F68A92" rx="8.628" ry="7.846"/>
</svg>
